<?xml version="1.0" encoding="UTF-8"?>
<svg id="Layer_1" data-name="Layer 1" xmlns="http://www.w3.org/2000/svg" viewBox="0 0 1920 1080">
  <defs>
    <style>
      .cls-1 {
        fill: #e0ff4f;
      }
    </style>
  </defs>
  <path class="cls-1" d="M198.9,743.14c-5.88,.09-10.95-.94-16.17-3.68l-139.65-79.91C14.69,643.94,.25,638.66,.23,601.52l.09-125.34c1.4-27.84,19.61-37.4,40.52-49.33l134.1-76.77,22.7-13.79c1.69-.36,2.93,1.06,4.33,1.9l164.78,95.33c16.08,9.09,29.25,23.35,29.68,42.65l.06,121.7c0,6.01,.49,12.49-.61,18.41-4.92,26.54-23.72,32.78-44.88,44.46l-138.76,79.21c-4.38,2.09-8.48,3.08-13.34,3.18Zm-.73-343l-108.88,63.17,109.53,62.63,108.74-62.65-109.39-63.14ZM54.86,507.26c.58,8.92,.17,18.03,.17,26.97l.05,63.11c0,1.1-.29,3.66,.21,4.54l114.83,64.67,.18-82.24c.01-9.62,2.36-8.04-4.45-12.44l-111.01-64.61Zm287.2,.24l-110.79,63.98c-1.52,.88-3.83,1.67-4.95,2.94l.3,93.02,115.7-66.6c-.91-9.75,.45-92.55-.26-93.34Z"/>
  <path class="cls-1" d="M378.9,421.02c-12.68,.35-23.25-6.53-28.31-18.07-3.13-7.15-1.59-17.53-1.6-25.28v-10.84c.01-15.25,7.72-26.99,24.14-28.63,16.04-1.02,29.25,11.33,29.29,27.46l.02,24.26c-.04,15.66-5.97,28.72-23.54,31.1Z"/>
  <path class="cls-1" d="M485.33,658.43v-235.27h58.38c14.14,0,25.41,2.57,33.84,7.7,8.42,5.13,14.57,12.54,18.44,22.22,3.87,9.69,5.81,21.4,5.81,35.15,0,12.39-2.18,23.14-6.54,32.24-4.35,9.1-10.79,16.12-19.31,21.06-8.52,4.94-19.17,7.41-31.95,7.41h-25.85v109.5h-32.82Zm32.82-133.02h15.1c9.49,0,16.95-1.07,22.37-3.2,5.42-2.13,9.29-5.86,11.62-11.19,2.32-5.32,3.49-12.83,3.49-22.5,0-11.24-.82-19.85-2.47-25.85-1.65-6-5.08-10.17-10.31-12.49-5.23-2.32-13.36-3.48-24.4-3.48h-15.39v78.71Zm106.59,133.02v-235.27h47.34c15.68,0,28.66,2.09,38.92,6.25s17.86,10.84,22.8,20.04c4.93,9.19,7.41,21.25,7.41,36.16,0,9.1-.97,17.38-2.91,24.83-1.94,7.46-5.03,13.75-9.29,18.88-4.26,5.13-9.87,8.86-16.84,11.19l33.4,117.92h-31.66l-30.79-110.37h-25.56v110.37h-32.82Zm32.82-133.9h12.49c9.29,0,16.85-1.16,22.65-3.49,5.81-2.32,10.07-6.29,12.78-11.91,2.71-5.61,4.07-13.45,4.07-23.53,0-13.75-2.52-23.67-7.55-29.77-5.03-6.1-15-9.14-29.92-9.14h-14.52v77.84Zm177.17,136.51c-15.88,0-28.56-3.1-38.05-9.3-9.49-6.19-16.26-15.05-20.33-26.57-4.07-11.52-6.1-25.03-6.1-40.52v-89.17c0-15.49,2.08-28.81,6.24-39.94,4.17-11.14,10.94-19.66,20.34-25.56,9.39-5.9,22.02-8.86,37.9-8.86s28.46,3,37.76,9.01c9.29,6,16.03,14.52,20.19,25.56,4.16,11.04,6.25,24.3,6.25,39.79v89.46c0,15.3-2.09,28.66-6.25,40.08-4.16,11.43-10.89,20.29-20.19,26.58-9.29,6.3-21.88,9.44-37.76,9.44Zm0-25.85c8.71,0,15.3-1.79,19.75-5.37,4.45-3.58,7.46-8.62,9.01-15.1,1.55-6.48,2.32-14.09,2.32-22.8v-103.11c0-8.71-.78-16.21-2.32-22.51-1.55-6.29-4.55-11.13-9.01-14.52-4.45-3.39-11.04-5.08-19.75-5.08s-15.34,1.69-19.89,5.08c-4.55,3.39-7.6,8.23-9.15,14.52-1.55,6.3-2.32,13.8-2.32,22.51v103.11c0,8.71,.77,16.32,2.32,22.8,1.55,6.48,4.6,11.52,9.15,15.1,4.55,3.58,11.18,5.37,19.89,5.37Zm79.29,28.76v-23.53c7.17,0,12.98-.49,17.43-1.45,4.45-.97,7.89-2.72,10.31-5.23,2.42-2.52,4.12-6.15,5.08-10.89,.97-4.75,1.45-10.8,1.45-18.16v-181.53h32.53v182.11c0,13.56-1.45,24.64-4.36,33.26-2.9,8.61-8.04,15.01-15.39,19.17-7.36,4.17-17.81,6.25-31.37,6.25h-15.69Zm103.69-5.52v-235.27h91.2v24.4h-58.38v77.84h47.34v23.23h-47.34v86.27h58.97v23.53h-91.78Zm177.17,2.62c-16.65,0-29.57-3.49-38.77-10.46-9.2-6.97-15.59-16.36-19.17-28.17-3.58-11.82-5.37-24.98-5.37-39.5v-83.07c0-15.88,1.79-29.72,5.37-41.53,3.58-11.82,9.97-20.96,19.17-27.45,9.2-6.48,22.12-9.73,38.77-9.73,14.72,0,26.38,2.71,35,8.13,8.62,5.42,14.82,13.17,18.59,23.23,3.77,10.07,5.66,22.17,5.66,36.31v18.59h-31.08v-16.56c0-8.71-.43-16.41-1.3-23.1-.87-6.68-3.24-11.86-7.12-15.53-3.87-3.68-10.36-5.52-19.46-5.52s-16.07,1.98-20.33,5.95c-4.26,3.97-7.02,9.58-8.28,16.84s-1.89,15.73-1.89,25.41v93.24c0,11.82,.97,21.15,2.9,28.03,1.94,6.88,5.13,11.77,9.59,14.67,4.45,2.9,10.45,4.35,18.01,4.35,8.91,0,15.3-1.98,19.17-5.95,3.87-3.97,6.29-9.44,7.26-16.41,.97-6.97,1.45-15.1,1.45-24.4v-17.43h31.08v17.43c0,14.33-1.74,26.96-5.23,37.9-3.49,10.94-9.49,19.46-18.01,25.56-8.52,6.1-20.53,9.15-36.02,9.15Zm116.47-2.62v-210.87h-39.79v-24.4h111.24v24.4h-38.63v210.87h-32.82Zm86.85,0v-23.53l69.13-188.21h-64.77v-23.53h99.62v14.23l-72.9,197.51h72.9v23.53h-103.98Zm128.38,0v-235.27h91.21v24.4h-58.38v77.84h47.34v23.23h-47.34v86.27h58.96v23.53h-91.78Zm118.22,0v-235.27h47.34c15.69,0,28.66,2.09,38.92,6.25,10.26,4.16,17.86,10.84,22.8,20.04,4.93,9.19,7.41,21.25,7.41,36.16,0,9.1-.97,17.38-2.91,24.83-1.94,7.46-5.03,13.75-9.29,18.88-4.26,5.13-9.87,8.86-16.84,11.19l33.4,117.92h-31.66l-30.79-110.37h-25.56v110.37h-32.82Zm32.82-133.9h12.49c9.29,0,16.85-1.16,22.65-3.49,5.81-2.32,10.07-6.29,12.78-11.91,2.71-5.61,4.07-13.45,4.07-23.53,0-13.75-2.52-23.67-7.55-29.77-5.04-6.1-15.01-9.14-29.92-9.14h-14.52v77.84Zm177.17,136.51c-15.88,0-28.56-3.1-38.05-9.3-9.49-6.19-16.26-15.05-20.33-26.57-4.07-11.52-6.1-25.03-6.1-40.52v-89.17c0-15.49,2.08-28.81,6.25-39.94,4.16-11.14,10.94-19.66,20.33-25.56,9.39-5.9,22.02-8.86,37.9-8.86s28.46,3,37.76,9.01c9.29,6,16.03,14.52,20.19,25.56s6.25,24.3,6.25,39.79v89.46c0,15.3-2.09,28.66-6.25,40.08-4.16,11.43-10.89,20.29-20.19,26.58-9.29,6.3-21.88,9.44-37.76,9.44Zm0-25.85c8.71,0,15.3-1.79,19.75-5.37,4.45-3.58,7.46-8.62,9.01-15.1,1.55-6.48,2.32-14.09,2.32-22.8v-103.11c0-8.71-.78-16.21-2.32-22.51-1.55-6.29-4.55-11.13-9.01-14.52-4.45-3.39-11.04-5.08-19.75-5.08s-15.34,1.69-19.89,5.08c-4.55,3.39-7.6,8.23-9.15,14.52-1.55,6.3-2.32,13.8-2.32,22.51v103.11c0,8.71,.77,16.32,2.32,22.8,1.55,6.48,4.6,11.52,9.15,15.1,4.55,3.58,11.18,5.37,19.89,5.37Z"/>
</svg>