<svg xmlns="http://www.w3.org/2000/svg" version="1.1" xmlns:xlink="http://www.w3.org/1999/xlink" xmlns:svgjs="http://svgjs.dev/svgjs" viewBox="0 0 1422 800"><defs><filter id="uuunion-blur" x="-100%" y="-100%" width="400%" height="400%" color-interpolation-filters="sRGB">
        <feGaussianBlur in="SourceGraphic" stdDeviation="7 3" result="blur"></feGaussianBlur>
        <feDropShadow stdDeviation="12.307692307692308" in="blur" dx="10" dy="10" flood-color="hsl(347, 87%, 54%)" flood-opacity="0.25" x="0%" y="0%" width="100%" height="100%"></feDropShadow>
      </filter><filter id="uuunion-blur2" x="-100%" y="-100%" width="400%" height="400%" color-interpolation-filters="sRGB">
        <feGaussianBlur in="SourceGraphic" stdDeviation="7 3" result="blur"></feGaussianBlur>
        <feDropShadow stdDeviation="12.307692307692308" in="blur" dx="-10" dy="-10" flood-color="hsl(347, 87%, 54%)" flood-opacity="0.25" x="0%" y="0%" width="100%" height="100%"></feDropShadow>
      </filter><linearGradient gradientTransform="rotate(0, 0.5, 0.5)" x1="50%" y1="0%" x2="50%" y2="100%" id="uuunion-grad"><stop stop-color="hsl(240, 100%, 50%)" offset="10%"></stop><stop stop-color="hsl(347, 87%, 54%)" offset="90%"></stop></linearGradient><linearGradient gradientTransform="rotate(135, 0.5, 0.5)" x1="50%" y1="0%" x2="50%" y2="100%" id="uuunion-grad2"><stop stop-color="hsl(240, 100%, 50%)" offset="25%"></stop><stop stop-color="hsl(347, 87%, 54%)" offset="100%"></stop></linearGradient><linearGradient gradientTransform="rotate(333, 0.5, 0.5)" x1="50%" y1="0%" x2="50%" y2="100%" id="uuunion-grad3"><stop stop-color="hsl(240, 100%, 50%)" offset="0%"></stop><stop stop-color="hsl(347, 87%, 54%)" offset="75%"></stop></linearGradient></defs><path d="M-131.31 -88.41Q-118.33 -87.43 -105.35 -85.93 -92.36 -84 -79.38 -81.8 -66.4 -79.47 -53.42 -77.17 -40.44 -75.07 -27.45 -73.33 -14.47 -72.05 -1.49 -71.33 11.48 -71.23 24.46 -71.75 37.44 -72.84 50.43 -74.45 63.41 -76.44 76.39 -78.69 89.37 -81.03 102.35 -83.3 115.34 -85.33 128.32 -86.98 141.3 -88.15 154.28 -88.73 167.26 -88.7 180.24 -88.05 193.23 -86.84 206.21 -85.14 219.19 -83.07 232.17 -80.79 245.15 -78.46 258.14 -76.23 271.12 -74.26 284.1 -72.71 297.08 -71.67 310.06 -71.21 323.04 -71.38 336.03 -72.15 349.01 -73.48 361.99 -75.27 374.97 -77.4 387.95 -79.71 400.94 -82.03 413.92 -84.22 426.9 -86.1 439.88 -87.56 452.86 -88.47 465.85 -88.79 478.83 -88.49 491.81 -87.59 504.79 -86.15 517.77 -84.28 530.75 -82.1 543.74 -79.78 556.72 -77.46 569.7 -75.33 582.68 -73.53 595.66 -72.19 608.65 -71.39 621.63 -71.21 634.61 -71.64 647.59 -72.67 660.57 -74.21 673.56 -76.16 686.54 -78.39 699.52 -80.72 712.5 -83.01 725.48 -85.08 738.46 -86.79 751.45 -88.03 764.43 -88.69 777.41 -88.74 790.39 -88.17 803.37 -87.03 816.36 -85.38 829.34 -83.36 842.32 -81.1 855.3 -78.76 868.28 -76.51 881.27 -74.5 894.25 -72.89 907.23 -71.77 920.21 -71.24 933.19 -71.32 946.18 -72.02 959.16 -73.28 972.14 -75.02 985.12 -77.11 998.1 -79.4 1011.08 -81.73 1024.07 -83.94 1037.05 -85.88 1050.03 -87.39 1063.01 -88.39 1075.99 -88.79 1088.98 -88.57 1101.96 -87.74 1114.94 -86.37 1127.92 -84.54 1140.9 -82.4 1153.89 -80.08 1166.87 -77.76 1179.85 -75.6 1192.83 -73.75 1205.81 -72.33 1218.8 -71.46 1231.78 -71.2 1244.76 -71.55 1257.74 -72.5 1270.72 -73.98 1283.71 -75.89 1296.69 -78.09 1309.67 -80.42 1322.65 -82.72 1335.63 -84.83 1348.61 -86.59 1361.6 -87.89 1374.58 -88.64 1387.56 -88.77 1400.54 -88.28 1413.52 -87.21 1426.51 -85.62 1439.49 -83.64 1452.47 -81.4 1465.45 -79.07 1478.43 -76.79 1491.42 -74.75 1504.4 -73.07 1517.38 -71.88 1530.36 -71.27 1532.29 -56.05 1536.75 -40.83 1543.4 -25.6 1551.71 -10.38 1561 4.83 1570.55 20.06 1579.6 35.28 1587.42 50.5 1593.39 65.73 1597.04 80.95 1598.07 96.17 1596.41 111.4 1592.19 126.62 1585.74 141.84 1577.57 157.06 1568.34 172.29 1558.78 187.51 1549.66 202.73 1541.68 217.96 1535.5 233.18 1531.6 248.4 1530.3 263.63 1531.69 278.85 1535.67 294.07 1541.92 309.29 1549.94 324.52 1559.09 339.74 1568.65 354.96 1577.86 370.19 1585.98 385.41 1592.36 400.63 1596.51 415.86 1598.08 431.08 1596.96 446.3 1593.23 461.53 1587.19 476.75 1579.32 491.97 1570.25 507.19 1560.69 522.42 1551.42 537.64 1543.16 552.86 1536.57 568.09 1532.18 583.31 1530.34 598.53 1531.2 613.76 1534.68 628.98 1540.5 644.2 1548.22 659.42 1557.2 674.65 1566.74 689.87 1576.08 705.09 1584.47 720.32 1591.25 735.54 1595.88 750.76 1597.98 765.99 1597.4 781.21 1594.17 796.43 1588.57 811.66 1581.02 826.88 1572.13 842.1 1562.61 857.32 1553.22 872.55 1544.7 887.77 1537.73 902.99 1524.67 901.38 1511.62 898.25 1498.56 893.83 1485.5 888.44 1472.44 882.44 1459.38 876.28 1446.33 870.38 1433.27 865.15 1420.21 860.98 1407.15 858.15 1394.09 856.86 1381.04 857.21 1367.98 859.17 1354.92 862.6 1341.86 867.26 1328.8 872.82 1315.74 878.89 1302.69 885.03 1289.63 890.82 1276.57 895.84 1263.51 899.75 1250.45 902.26 1237.4 903.19 1224.34 902.49 1211.28 900.19 1198.22 896.47 1185.16 891.59 1172.11 885.88 1159.05 879.76 1145.99 873.66 1132.93 868 1119.87 863.19 1106.82 859.57 1093.76 857.39 1080.7 856.81 1067.64 857.87 1054.58 860.49 1041.53 864.49 1028.47 869.59 1015.41 875.42 1002.35 881.57 989.29 887.61 976.24 893.12 963.18 897.69 950.12 901.02 937.06 902.86 924 903.09 910.95 901.68 897.89 898.74 884.83 894.47 871.77 889.19 858.71 883.25 845.66 877.08 832.6 871.12 819.54 865.79 806.48 861.46 793.43 858.44 780.37 856.94 767.31 857.07 754.25 858.82 741.19 862.07 728.14 866.59 715.08 872.05 702.02 878.07 688.96 884.23 675.9 890.09 662.85 895.24 649.79 899.31 636.73 902.01 623.67 903.16 610.61 902.67 597.56 900.58 584.5 897.03 571.44 892.28 558.38 886.67 545.32 880.57 532.27 874.44 519.21 868.7 506.15 863.76 493.09 859.97 480.03 857.59 466.98 856.8 453.92 857.64 440.86 860.06 427.8 863.9 414.74 868.87 401.69 874.62 388.63 880.76 375.57 886.84 362.51 892.44 349.45 897.16 336.4 900.66 323.34 902.71 310.28 903.15 297.22 901.95 284.16 899.21 271.11 895.1 258.05 889.93 244.99 884.05 231.93 877.89 218.88 871.88 205.82 866.44 192.76 861.96 179.7 858.75 166.64 857.04 153.59 856.96 140.53 858.5 127.47 861.57 114.41 865.93 101.35 871.29 88.3 877.26 75.24 883.43 62.18 889.35 49.12 894.62 36.06 898.85 23.01 901.74 9.95 903.1 -3.1 902.83 -16.16 900.94 -29.21 897.58 -42.27 892.97 -55.33 887.44 -68.39 881.39 -81.45 875.24 -94.5 869.42 -107.56 864.36 -120.62 860.39 -133.68 857.82 -135.92 843.03 -138.66 828.25 -141.68 813.46 -144.74 798.68 -147.59 783.89 -150.02 769.11 -151.82 754.32 -152.86 739.54 -153.05 724.75 -152.37 709.97 -150.88 695.18 -148.7 680.4 -146 665.61 -143 650.83 -139.94 636.04 -137.05 621.26 -134.57 606.47 -132.7 591.69 -131.58 576.9 -131.3 562.12 -131.9 547.33 -133.31 532.55 -135.42 517.76 -138.08 502.98 -141.06 488.19 -144.13 473.41 -147.05 458.62 -149.58 443.84 -151.52 429.05 -152.72 414.27 -153.08 399.48 -152.57 384.7 -151.24 369.91 -149.19 355.13 -146.58 340.34 -143.62 325.56 -140.54 310.77 -137.6 295.99 -135.02 281.2 -133.02 266.42 -131.74 251.64 -131.29 236.85 -131.71 222.07 -132.96 207.28 -134.95 192.5 -137.51 177.71 -140.45 162.93 -143.52 148.14 -146.49 133.36 -149.11 118.57 -151.18 103.79 -152.54 89 -153.08 74.22 -152.74 59.43 -151.57 44.65 -149.65 29.86 -147.14 15.08 -144.23 0.29 -141.16 -14.48 -138.17 -29.27 -135.5 -44.05 -133.36 -58.84 -131.93 -73.62 -131.31 -88.41" fill="url(#uuunion-grad)"></path><path d="M-131.32 -88.41Q-131.94 -73.62 -133.37 -58.84 -135.51 -44.05 -138.18 -29.27 -141.17 -14.48 -144.24 0.29 -147.15 15.08 -149.66 29.86 -151.58 44.65 -152.75 59.43 -153.09 74.22 -152.55 89 -151.19 103.79 -149.12 118.57 -146.5 133.36 -143.53 148.14 -140.46 162.92 -137.52 177.71 -134.96 192.49 -132.97 207.28 -131.72 222.06 -131.3 236.85 -131.75 251.63 -133.02 266.42 -135.03 281.2 -137.61 295.99 -140.55 310.77 -143.63 325.56 -146.59 340.34 -149.2 355.13 -151.25 369.91 -152.58 384.7 -143.47 385.77 -134.36 387.29 -125.25 389.21 -116.14 391.47 -107.03 393.99 -97.92 396.71 -88.81 399.53 -79.7 402.37 -70.59 405.13 -61.48 407.73 -52.37 410.08 -43.26 412.12 -34.15 413.77 -25.04 414.99 -7.83 415.92 -4.78 415.98 6.71 412.28 18.22 407.83 29.74 402.69 41.27 396.98 52.79 390.82 64.31 384.36 75.83 377.77 87.33 371.22 98.82 364.87 110.3 358.89 121.76 353.4 133.2 348.52 144.62 344.34 156.01 340.9 167.37 338.21 178.71 336.25 190.02 334.95 201.3 334.23 212.54 333.95 223.75 333.99 234.93 334.17 246.07 334.35 257.18 334.35 268.25 334.03 279.29 333.24 290.3 331.89 301.27 329.89 312.22 327.18 323.13 323.74 334.01 319.61 344.87 314.83 355.7 309.49 366.5 303.7 377.29 297.59 388.06 291.32 398.81 285.03 409.55 278.88 420.27 273.02 430.99 267.58 441.7 262.67 452.42 258.37 463.13 254.74 473.85 251.8 484.57 249.54 495.31 247.9 506.06 246.81 516.83 246.17 527.62 245.86 538.43 245.72 549.27 245.62 560.14 245.41 571.04 244.95 581.98 244.1 592.96 242.76 603.97 240.85 615.03 238.3 626.13 235.1 637.27 231.26 648.47 226.8 659.71 221.81 671 216.38 682.34 210.62 693.73 204.67 705.18 198.66 716.67 192.74 728.22 187.04 739.82 181.68 751.47 176.78 763.16 172.42 774.91 168.65 786.69 165.49 798.53 162.96 810.4 161.01 822.31 159.58 834.26 158.59 846.25 157.92 858.26 157.46 870.3 157.08 882.36 156.63 894.45 155.99 906.55 155.04 918.66 153.67 930.77 151.8 942.89 149.38 955.01 146.37 967.12 142.78 979.22 138.62 991.3 133.96 1003.36 128.87 1015.4 123.46 1027.4 117.83 1039.37 112.12 1051.3 106.45 1063.19 100.93 1075.02 95.7 1086.8 90.85 1098.53 86.46 1110.19 82.58 1121.78 79.26 1133.31 76.5 1144.76 74.27 1156.13 72.52 1167.42 71.19 1178.64 70.19 1189.76 69.4 1200.8 68.71 1211.75 68 1222.61 67.16 1233.38 66.07 1244.06 64.63 1254.65 62.77 1265.14 60.43 1275.54 57.57 1285.85 54.19 1296.07 50.29 1306.2 45.94 1316.25 41.18 1326.21 36.1 1336.09 30.8 1345.89 25.39 1355.62 19.99 1365.28 14.69 1374.87 9.61 1384.4 4.85 1393.87 0.47 1403.29 -3.45 1412.66 -6.9 1422 -9.86 1412.22 -27.1 1403.49 -44.34 1396.77 -61.58 1392.77 -78.82 1391.93 -96.06 1394.34 -113.3 1399.73 -130.55 1407.53 -147.79 1395.37 -147.87 1383.22 -147.48 1371.06 -146.63 1358.9 -145.39 1346.74 -143.82 1334.59 -142.02 1322.43 -140.1 1310.27 -138.17 1298.11 -136.35 1285.96 -134.75 1273.8 -133.47 1261.64 -132.58 1249.48 -132.14 1237.33 -132.17 1225.17 -132.68 1213.01 -133.62 1200.85 -134.96 1188.7 -136.59 1176.54 -138.43 1164.38 -140.37 1152.22 -142.28 1140.07 -144.05 1127.91 -145.58 1115.75 -146.78 1103.59 -147.56 1091.44 -147.89 1079.28 -147.74 1067.12 -147.12 1054.96 -146.08 1042.81 -144.66 1030.65 -142.97 1018.49 -141.09 1006.33 -139.15 994.18 -137.26 982.02 -135.54 969.86 -134.08 957.7 -132.98 945.55 -132.31 933.39 -132.1 921.23 -132.36 909.07 -133.08 896.92 -134.23 884.76 -135.72 872.6 -137.46 860.44 -139.36 848.29 -141.3 836.13 -143.16 823.97 -144.83 811.81 -146.21 799.66 -147.21 787.5 -147.78 775.34 -147.87 763.18 -147.5 751.03 -146.67 738.87 -145.43 726.71 -143.87 714.55 -142.08 702.4 -140.16 690.24 -138.23 678.08 -136.4 665.92 -134.8 653.77 -133.5 641.61 -132.6 629.45 -132.15 617.29 -132.16 605.13 -132.66 592.98 -133.59 580.82 -134.91 568.66 -136.54 556.5 -138.37 544.35 -140.31 532.19 -142.22 520.03 -144 507.87 -145.54 495.72 -146.74 483.56 -147.54 471.4 -147.88 459.24 -147.75 447.09 -147.15 434.93 -146.11 422.77 -144.71 410.61 -143.02 398.46 -141.15 386.3 -139.21 374.14 -137.32 361.98 -135.59 349.83 -134.12 337.67 -133.01 325.51 -132.32 313.35 -132.1 301.2 -132.34 289.04 -133.06 276.88 -134.18 264.72 -135.66 252.57 -137.41 240.41 -139.3 228.25 -141.24 216.09 -143.11 203.94 -144.78 191.78 -146.17 179.62 -147.19 167.46 -147.77 155.31 -147.88 143.15 -147.51 130.99 -146.7 118.83 -145.48 106.68 -143.92 94.52 -142.13 82.36 -140.22 70.2 -138.28 58.05 -136.46 45.89 -134.84 33.73 -133.54 21.57 -132.62 9.42 -132.15 -2.73 -132.16 -14.89 -132.63 -27.05 -133.55 -39.2 -134.86 -51.36 -136.48 -63.52 -138.31 -75.68 -140.25 -87.83 -142.16 -99.99 -143.95 -112.15 -145.5 -124.31 -146.71 -139.83 -140.29 -138.42 -118.21 -134.44 -103.33 -131.32 -88.41" fill="url(#uuunion-grad2)" filter="url(#uuunion-blur)"></path><path d="M1414.67 305.4Q1423.5 306.06 1432.33 307.16 1441.16 308.67 1449.99 310.53 1458.82 312.69 1467.65 315.08 1476.48 317.62 1485.31 320.24 1494.14 322.86 1502.97 325.38 1511.8 327.73 1520.64 329.84 1529.47 331.64 1538.3 333.07 1547.13 334.09 1555.96 334.67 1567.06 352.43 1577.86 370.19 1587.18 387.95 1594.01 405.71 1597.63 423.47 1597.63 441.23 1594.02 458.99 1587.19 476.75 1577.87 494.51 1567.08 512.27 1555.97 530.03 1545.75 547.79 1537.53 565.55 1532.18 583.31 1530.3 601.07 1532.07 618.83 1537.32 636.59 1545.47 654.35 1555.64 672.11 1566.74 689.87 1577.56 707.63 1586.94 725.39 1593.86 743.15 1597.57 760.91 1597.68 778.67 1594.17 796.43 1587.43 814.19 1578.17 831.95 1567.4 849.71 1556.29 867.47 1546.03 885.23 1537.73 902.99 1525.75 901.57 1513.78 898.86 1501.8 895.03 1489.82 890.31 1477.84 884.97 1465.87 879.33 1453.89 873.74 1441.91 868.52 1429.93 863.98 1417.96 860.39 1405.98 857.97 1394 856.86 1382.02 857.13 1370.05 858.76 1358.07 861.65 1346.09 865.63 1334.11 870.47 1322.14 875.88 1310.16 881.53 1298.18 887.09 1286.2 892.23 1274.23 896.64 1262.25 900.06 1250.27 902.28 1238.29 903.18 1226.32 902.7 1214.34 900.87 1202.36 897.79 1190.38 893.66 1178.41 888.71 1166.43 883.25 1154.45 877.59 1142.47 872.07 1130.5 867.03 1118.52 862.76 1106.54 859.51 1094.56 857.48 1082.59 856.8 1070.61 857.49 1058.63 859.52 1046.65 862.77 1034.68 867.05 1022.7 872.1 1010.72 877.61 998.74 883.27 986.77 888.73 974.79 893.68 962.81 897.81 950.83 900.88 938.86 902.7 926.88 903.18 914.9 902.27 902.92 900.04 890.95 896.62 878.97 892.21 866.99 887.07 855.01 881.51 843.04 875.86 831.06 870.45 819.08 865.62 807.1 861.63 795.12 858.75 783.15 857.12 771.17 856.86 759.19 857.98 747.21 860.4 735.24 863.99 723.26 868.54 711.28 873.76 699.3 879.36 687.33 884.99 675.35 890.33 663.37 895.05 651.39 898.88 639.42 901.58 627.44 903 615.46 903.05 603.48 901.72 591.51 899.11 579.53 895.35 567.55 890.68 555.57 885.38 543.6 879.76 531.62 874.15 519.64 868.88 507.66 864.28 495.69 860.62 483.71 858.11 471.73 856.9 459.75 857.06 447.78 858.59 435.8 861.39 423.82 865.3 411.84 870.09 399.87 875.46 387.89 881.11 375.91 886.69 363.93 891.87 351.96 896.34 339.98 899.84 328 902.16 316.02 903.16 304.05 902.78 292.07 901.05 280.09 898.06 268.11 894 256.14 889.1 244.16 883.67 232.18 878.01 220.2 872.47 208.23 867.38 196.25 863.04 184.27 859.71 172.29 857.59 160.32 856.8 148.34 857.39 136.36 859.33 124.38 862.49 112.41 866.7 100.43 871.7 88.45 877.19 76.47 882.85 64.5 888.34 52.52 893.33 40.54 897.53 28.56 900.69 10.13 897.83 2.56 882.89 1.32 872.74 0.01 862.59 -1.34 852.44 -2.68 842.29 -4.29 827.07 -4.12 822 7.93 814.97 20.11 806.64 32.41 797.14 44.82 786.68 57.34 775.53 69.96 764.01 82.67 752.44 95.46 741.15 108.31 730.46 121.21 720.62 134.14 711.86 147.1 704.33 160.06 698.09 173.02 693.12 185.95 689.35 198.85 686.6 211.7 684.64 224.5 683.21 237.23 682.01 249.89 680.7 262.48 679 274.99 676.62 287.42 673.33 299.78 668.96 312.07 663.39 324.29 656.6 336.46 648.63 348.58 639.6 360.66 629.7 372.73 619.15 384.78 608.23 396.83 597.23 408.91 586.45 421.02 576.17 433.18 566.63 445.4 558.03 457.69 550.5 470.07 544.11 482.55 538.86 495.14 534.68 507.83 531.43 520.65 528.91 533.58 526.88 546.63 525.07 559.8 523.22 573.07 521.04 586.45 518.29 599.92 514.76 613.46 510.29 627.07 504.77 640.73 498.17 654.41 490.54 668.1 481.95 681.78 472.57 695.42 462.6 709.01 452.29 722.52 441.87 735.92 431.62 749.21 421.77 762.35 412.56 775.33 404.14 788.14 396.66 800.76 390.17 813.19 384.67 823.04 384.62 832.89 385.09 842.72 386.03 852.55 387.34 862.36 388.94 872.16 390.71 881.94 392.54 891.71 394.32 901.47 395.92 911.22 397.25 920.95 398.21 930.66 398.71 940.36 398.69 950.05 398.1 959.72 396.93 969.38 395.17 979.02 392.83 988.65 389.97 998.26 386.64 1007.85 382.93 1017.43 378.93 1026.99 374.73 1036.54 370.46 1046.07 366.23 1055.59 362.14 1065.08 358.31 1074.56 354.83 1084.03 351.79 1093.48 349.25 1102.91 347.25 1112.32 345.84 1121.72 345 1131.1 344.72 1140.47 344.97 1149.82 345.69 1159.15 346.8 1168.47 348.21 1177.77 349.82 1187.05 351.53 1196.32 353.22 1205.57 354.78 1214.81 356.11 1224.03 357.1 1233.24 357.69 1242.43 357.79 1251.61 357.36 1260.78 356.36 1269.93 354.8 1279.06 352.68 1288.18 350.04 1297.29 346.94 1306.39 343.43 1315.47 339.61 1324.54 335.58 1333.6 331.44 1342.65 327.3 1351.69 323.26 1360.71 319.45 1369.73 315.93 1378.73 312.82 1387.73 310.16 1396.72 308.03 1405.69 306.43 1414.67 305.4" fill="url(#uuunion-grad3)" filter="url(#uuunion-blur2)"></path></svg>