<svg id="visual" viewBox="0 0 900 600" width="900" height="600" xmlns="http://www.w3.org/2000/svg" xmlns:xlink="http://www.w3.org/1999/xlink" version="1.1"><path d="M0 97L13.7 92C27.3 87 54.7 77 82 67C109.3 57 136.7 47 163.8 46C191 45 218 53 245.2 57C272.3 61 299.7 61 327 61C354.3 61 381.7 61 409 58C436.3 55 463.7 49 491 53C518.3 57 545.7 71 573 74C600.3 77 627.7 69 654.8 70C682 71 709 81 736.2 79C763.3 77 790.7 63 818 56C845.3 49 872.7 49 886.3 49L900 49L900 0L886.3 0C872.7 0 845.3 0 818 0C790.7 0 763.3 0 736.2 0C709 0 682 0 654.8 0C627.7 0 600.3 0 573 0C545.7 0 518.3 0 491 0C463.7 0 436.3 0 409 0C381.7 0 354.3 0 327 0C299.7 0 272.3 0 245.2 0C218 0 191 0 163.8 0C136.7 0 109.3 0 82 0C54.7 0 27.3 0 13.7 0L0 0Z" fill="#e0ff4f"></path><path d="M0 145L13.7 153C27.3 161 54.7 177 82 169C109.3 161 136.7 129 163.8 118C191 107 218 117 245.2 127C272.3 137 299.7 147 327 151C354.3 155 381.7 153 409 141C436.3 129 463.7 107 491 110C518.3 113 545.7 141 573 157C600.3 173 627.7 177 654.8 179C682 181 709 181 736.2 172C763.3 163 790.7 145 818 133C845.3 121 872.7 115 886.3 112L900 109L900 47L886.3 47C872.7 47 845.3 47 818 54C790.7 61 763.3 75 736.2 77C709 79 682 69 654.8 68C627.7 67 600.3 75 573 72C545.7 69 518.3 55 491 51C463.7 47 436.3 53 409 56C381.7 59 354.3 59 327 59C299.7 59 272.3 59 245.2 55C218 51 191 43 163.8 44C136.7 45 109.3 55 82 65C54.7 75 27.3 85 13.7 90L0 95Z" fill="#72cc61"></path><path d="M0 235L13.7 239C27.3 243 54.7 251 82 246C109.3 241 136.7 223 163.8 218C191 213 218 221 245.2 233C272.3 245 299.7 261 327 268C354.3 275 381.7 273 409 255C436.3 237 463.7 203 491 200C518.3 197 545.7 225 573 243C600.3 261 627.7 269 654.8 268C682 267 709 257 736.2 259C763.3 261 790.7 275 818 265C845.3 255 872.7 221 886.3 204L900 187L900 107L886.3 110C872.7 113 845.3 119 818 131C790.7 143 763.3 161 736.2 170C709 179 682 179 654.8 177C627.7 175 600.3 171 573 155C545.7 139 518.3 111 491 108C463.7 105 436.3 127 409 139C381.7 151 354.3 153 327 149C299.7 145 272.3 135 245.2 125C218 115 191 105 163.8 116C136.7 127 109.3 159 82 167C54.7 175 27.3 159 13.7 151L0 143Z" fill="#009465"></path><path d="M0 409L13.7 400C27.3 391 54.7 373 82 367C109.3 361 136.7 367 163.8 390C191 413 218 453 245.2 457C272.3 461 299.7 429 327 420C354.3 411 381.7 425 409 433C436.3 441 463.7 443 491 432C518.3 421 545.7 397 573 395C600.3 393 627.7 413 654.8 413C682 413 709 393 736.2 402C763.3 411 790.7 449 818 466C845.3 483 872.7 479 886.3 477L900 475L900 185L886.3 202C872.7 219 845.3 253 818 263C790.7 273 763.3 259 736.2 257C709 255 682 265 654.8 266C627.7 267 600.3 259 573 241C545.7 223 518.3 195 491 198C463.7 201 436.3 235 409 253C381.7 271 354.3 273 327 266C299.7 259 272.3 243 245.2 231C218 219 191 211 163.8 216C136.7 221 109.3 239 82 244C54.7 249 27.3 241 13.7 237L0 233Z" fill="#005c53"></path><path d="M0 601L13.7 601C27.3 601 54.7 601 82 601C109.3 601 136.7 601 163.8 601C191 601 218 601 245.2 601C272.3 601 299.7 601 327 601C354.3 601 381.7 601 409 601C436.3 601 463.7 601 491 601C518.3 601 545.7 601 573 601C600.3 601 627.7 601 654.8 601C682 601 709 601 736.2 601C763.3 601 790.7 601 818 601C845.3 601 872.7 601 886.3 601L900 601L900 473L886.3 475C872.7 477 845.3 481 818 464C790.7 447 763.3 409 736.2 400C709 391 682 411 654.8 411C627.7 411 600.3 391 573 393C545.7 395 518.3 419 491 430C463.7 441 436.3 439 409 431C381.7 423 354.3 409 327 418C299.7 427 272.3 459 245.2 455C218 451 191 411 163.8 388C136.7 365 109.3 359 82 365C54.7 371 27.3 389 13.7 398L0 407Z" fill="#00272b"></path></svg>