<?xml version="1.0" encoding="UTF-8"?>
<svg id="Layer_1" data-name="Layer 1" xmlns="http://www.w3.org/2000/svg" viewBox="0 0 1000 500">
  <defs>
    <style>
      .cls-1 {
        fill: #fff;
      }

      .cls-2 {
        fill: #e0ff4f;
      }
    </style>
  </defs>
  <g>
    <path class="cls-2" d="M200.33,397.81c-3.96,.06-7.37-.63-10.89-2.48l-93.97-53.77c-19.1-10.5-28.82-14.05-28.83-39.04l.06-84.35c.94-18.73,13.19-25.17,27.27-33.2l90.23-51.66,15.28-9.28c1.14-.24,1.97,.71,2.91,1.28l110.88,64.15c10.82,6.12,19.68,15.71,19.97,28.7l.04,81.89c0,4.05,.32,8.4-.42,12.39-3.31,17.86-15.96,22.06-30.19,29.92l-93.38,53.3c-2.94,1.4-5.7,2.07-8.97,2.14Zm-.5-230.81l-73.27,42.51,73.7,42.14,73.17-42.16-73.61-42.49Zm-96.44,72.09c.39,6,.12,12.13,.12,18.15l.03,42.47c0,.74-.19,2.46,.14,3.05l77.28,43.51,.12-55.34c0-6.48,1.59-5.41-2.99-8.37l-74.7-43.48Zm193.26,.16l-74.55,43.06c-1.03,.59-2.58,1.12-3.33,1.97l.2,62.59,77.86-44.81c-.62-6.56,.3-62.28-.18-62.81Z"/>
    <path class="cls-2" d="M321.45,181.06c-8.53,.23-15.65-4.39-19.05-12.16-2.11-4.81-1.07-11.8-1.08-17.01v-7.3c0-10.26,5.19-18.16,16.24-19.27,10.79-.69,19.68,7.63,19.71,18.48v16.33c-.01,10.53-4,19.33-15.83,20.92Z"/>
  </g>
  <g>
    <path class="cls-1" d="M391.2,253.92c0-12.53,3.89-22.36,11.68-29.49,7.79-7.13,18.55-10.69,32.3-10.69s24.39,3.56,32.16,10.69c7.77,7.13,11.66,16.96,11.66,29.49s-3.89,22.34-11.68,29.43c-7.79,7.09-18.57,10.64-32.35,10.64s-24.33-3.56-32.11-10.69c-7.77-7.13-11.66-16.92-11.66-29.38Zm43.98-28.66c-5.11,0-8.83,2.25-11.16,6.75-2.33,4.5-3.5,11.73-3.5,21.69s1.16,17.47,3.47,21.99,6.01,6.78,11.08,6.78,8.87-2.24,11.19-6.72c2.31-4.48,3.47-11.72,3.47-21.72s-1.16-17.38-3.47-21.94c-2.31-4.55-6.01-6.83-11.08-6.83Z"/>
    <path class="cls-1" d="M512.84,245.77c2.72-3.2,5.48-5.51,8.29-6.94s5.94-2.15,9.4-2.15c7.35,0,12.95,2.41,16.81,7.22,3.86,4.82,5.79,11.82,5.79,21s-1.98,15.77-5.95,20.97c-3.97,5.2-9.28,7.8-15.93,7.8-3.49,0-6.64-.66-9.45-1.98s-5.32-3.31-7.52-5.95v15.05c0,2.09,.39,3.5,1.18,4.22,.79,.72,2.36,1.07,4.71,1.07h1.6v9.92h-37.26v-9.92h2.59c2.06,0,3.42-.34,4.08-1.02s.99-2.1,.99-4.27v-47.07c0-2.17-.33-3.59-.99-4.27-.66-.68-2.02-1.02-4.08-1.02h-2.59v-9.98h28.33v7.33Zm1.54,19.13c0,5.77,.61,10.03,1.85,12.79,1.23,2.76,3.11,4.13,5.65,4.13s4.34-1.38,5.54-4.13c1.19-2.76,1.79-7.02,1.79-12.79s-.61-9.95-1.82-12.76c-1.21-2.81-3.05-4.22-5.51-4.22s-4.37,1.41-5.62,4.24c-1.25,2.83-1.87,7.08-1.87,12.73Z"/>
    <path class="cls-1" d="M616.67,273.21c-1.29,6.91-4.26,12.06-8.93,15.46-4.67,3.4-11.1,5.1-19.29,5.1-9.37,0-16.77-2.57-22.21-7.72-5.44-5.14-8.16-12.13-8.16-20.94s2.73-15.72,8.18-20.92c5.46-5.2,12.78-7.8,21.96-7.8s16.05,2.58,20.92,7.74c4.87,5.16,7.3,12.56,7.3,22.18v1.93h-35.44v1.1c0,4.48,.94,7.92,2.81,10.31,1.87,2.39,4.54,3.58,7.99,3.58,2.94,0,5.35-.86,7.22-2.59,1.87-1.73,3.12-4.21,3.75-7.44h13.89Zm-35.66-14.88h16.37v-.83c0-3.53-.72-6.25-2.15-8.16-1.43-1.91-3.47-2.87-6.12-2.87s-4.57,1.03-5.98,3.09c-1.41,2.06-2.12,4.98-2.12,8.76Z"/>
    <path class="cls-1" d="M689.26,276.52c0,2.2,.33,3.64,.99,4.3s2.06,.99,4.19,.99h2.26v9.92h-35.66v-9.92h1.21c1.91,0,3.18-.34,3.8-1.02,.62-.68,.94-2.1,.94-4.27v-19.24c0-3.05-.61-5.34-1.82-6.86-1.21-1.52-3.05-2.29-5.51-2.29s-4.61,.97-6.12,2.92c-1.51,1.95-2.26,4.59-2.26,7.94v17.53c0,2.13,.33,3.55,.99,4.24,.66,.7,1.96,1.05,3.91,1.05h1.1v9.92h-36.21v-9.92h2.7c2.17,0,3.59-.34,4.27-1.02,.68-.68,1.02-2.1,1.02-4.27v-22.82c0-2.2-.34-3.64-1.02-4.3-.68-.66-2.1-.99-4.27-.99h-2.7v-9.98h29.65v8.27c2.43-3.2,5.3-5.61,8.63-7.25,3.33-1.63,7.05-2.45,11.16-2.45,6.8,0,11.62,1.47,14.47,4.41,2.85,2.94,4.27,8.05,4.27,15.32v19.79Z"/>
    <path class="cls-1" d="M776.4,216v31.03h-12.29c-.22-3.71-.62-6.75-1.18-9.12-.57-2.37-1.39-4.36-2.45-5.98-1.29-1.91-2.95-3.26-4.99-4.05-2.04-.79-5.94-1.18-11.71-1.18h-9.7v20.78h2.92c3.42,0,5.81-.83,7.19-2.48s2.07-4.59,2.07-8.82v-.66h9.48v34.56h-9.48c-.15-5.29-.84-8.73-2.07-10.31-1.23-1.58-3.59-2.37-7.08-2.37h-3.03v17.09c0,3.12,.39,4.99,1.18,5.59s2.45,.91,4.99,.91h4.19v10.75h-45.03v-10.75h3.8c2.5,0,4.14-.29,4.93-.88,.79-.59,1.18-2.28,1.18-5.07v-41.89c0-2.94-.37-4.75-1.1-5.43-.74-.68-2.45-1.02-5.13-1.02h-3.69v-10.69h77Z"/>
    <path class="cls-1" d="M788.25,231.21c0-2.17-.35-3.59-1.05-4.27-.7-.68-2.11-1.02-4.24-1.02h-2.48v-9.92h29.98v60.52c0,2.2,.34,3.64,1.02,4.3s2.09,.99,4.22,.99h1.76v9.92h-36.98v-9.92h2.48c2.13,0,3.55-.34,4.24-1.02,.7-.68,1.05-2.1,1.05-4.27v-45.31Z"/>
    <path class="cls-1" d="M864.42,253.37c.07-.22,.18-.53,.33-.94,.26-.62,.39-1.03,.39-1.21,0-.99-.47-1.69-1.41-2.09-.94-.4-2.76-.66-5.48-.77v-9.92h27.17v9.98c-2.31,0-4.09,.38-5.32,1.13-1.23,.75-2.36,2.36-3.39,4.82l-17.03,41.89c-2.68,6.65-6.08,11.6-10.2,14.85s-8.98,4.88-14.61,4.88-9.9-1.35-13.17-4.05c-3.27-2.7-4.91-6.31-4.91-10.83,0-3.16,1.02-5.74,3.06-7.74s4.68-3,7.91-3c2.83,0,5.13,.76,6.92,2.29,1.78,1.52,2.67,3.48,2.67,5.87,0,2.13-.6,3.88-1.79,5.24s-2.97,2.28-5.32,2.76c.55,.66,1.17,1.15,1.85,1.46s1.44,.47,2.29,.47c2.2,0,4.34-.95,6.42-2.84s3.94-4.6,5.59-8.13l-17.75-40.51-.33-.72c-2.31-5.22-4.76-7.83-7.33-7.83h-2.04v-9.98h34.78v9.98c-2.2,.04-3.56,.2-4.08,.5-.51,.3-.77,.83-.77,1.6,0,.55,.17,1.25,.5,2.09,.11,.26,.2,.48,.28,.66l7.66,18.74,7.11-18.63Z"/>
  </g>
</svg>