<?xml version="1.0" encoding="UTF-8"?>
<svg id="Layer_1" data-name="Layer 1" xmlns="http://www.w3.org/2000/svg" viewBox="0 0 700 200">
  <defs>
    <style>
      .cls-1 {
        fill: #fff;
      }

      .cls-2 {
        fill: #e0ff4f;
      }
    </style>
  </defs>
  <g>
    <path class="cls-2" d="M79.23,181.44c-2.36,.04-4.4-.38-6.5-1.48l-56.11-32.11C5.22,141.58-.59,139.46-.59,124.54l.04-50.37C0,62.99,7.32,59.15,15.72,54.35l53.88-30.85,9.12-5.54c.68-.14,1.18,.42,1.74,.76l66.21,38.3c6.46,3.65,11.75,9.38,11.92,17.14l.02,48.9c0,2.42,.19,5.02-.25,7.4-1.98,10.66-9.53,13.17-18.03,17.87l-55.76,31.83c-1.76,.84-3.4,1.24-5.36,1.28h0Zm-.3-137.81l-43.75,25.38,44.01,25.16,43.69-25.17-43.95-25.37h0ZM21.35,86.67c.23,3.58,.07,7.24,.07,10.84l.02,25.36c0,.44-.11,1.47,.08,1.82l46.14,25.98,.07-33.04c0-3.87,.95-3.23-1.79-5l-44.6-25.96h0Zm115.4,.1l-44.51,25.71c-.62,.35-1.54,.67-1.99,1.18l.12,37.37,46.49-26.76c-.37-3.92,.18-37.19-.11-37.5Z"/>
    <path class="cls-2" d="M151.55,52.02c-5.09,.14-9.34-2.62-11.37-7.26-1.26-2.87-.64-7.05-.64-10.16v-4.36c0-6.13,3.1-10.84,9.7-11.51,6.44-.41,11.75,4.56,11.77,11.03v9.75c0,6.29-2.39,11.54-9.45,12.49h0Z"/>
  </g>
  <g>
    <path class="cls-1" d="M179,99.55c0-13.03,4.05-23.25,12.15-30.67,8.1-7.42,19.29-11.12,33.59-11.12s25.37,3.7,33.45,11.12,12.13,17.64,12.13,30.67-4.05,23.23-12.15,30.61c-8.1,7.37-19.31,11.07-33.64,11.07s-25.3-3.7-33.4-11.12c-8.08-7.42-12.13-17.6-12.13-30.56h0Zm45.74-29.81c-5.31,0-9.18,2.34-11.61,7.02-2.42,4.68-3.64,12.2-3.64,22.56s1.21,18.17,3.61,22.87c2.4,4.7,6.25,7.05,11.52,7.05s9.22-2.33,11.64-6.99c2.4-4.66,3.61-12.19,3.61-22.59s-1.21-18.08-3.61-22.82c-2.4-4.73-6.25-7.1-11.52-7.1Z"/>
    <path class="cls-1" d="M305.51,91.07c2.83-3.33,5.7-5.73,8.62-7.22s6.18-2.24,9.78-2.24c7.64,0,13.47,2.51,17.48,7.51,4.01,5.01,6.02,12.29,6.02,21.84s-2.06,16.4-6.19,21.81c-4.13,5.41-9.65,8.11-16.57,8.11-3.63,0-6.91-.69-9.83-2.06s-5.53-3.44-7.82-6.19v15.65c0,2.17,.41,3.64,1.23,4.39s2.45,1.11,4.9,1.11h1.66v10.32h-38.75v-10.32h2.69c2.14,0,3.56-.35,4.24-1.06s1.03-2.18,1.03-4.44v-48.95c0-2.26-.34-3.73-1.03-4.44-.69-.71-2.1-1.06-4.24-1.06h-2.69v-10.38h29.46v7.62h0Zm1.6,19.89c0,6,.63,10.43,1.92,13.3,1.28,2.87,3.23,4.3,5.88,4.3s4.51-1.44,5.76-4.3c1.24-2.87,1.86-7.3,1.86-13.3s-.63-10.35-1.89-13.27c-1.26-2.92-3.17-4.39-5.73-4.39s-4.54,1.47-5.84,4.41-1.94,7.36-1.94,13.24h-.01Z"/>
    <path class="cls-1" d="M413.49,119.61c-1.34,7.19-4.43,12.54-9.29,16.08-4.86,3.54-11.54,5.3-20.06,5.3-9.75,0-17.44-2.67-23.1-8.03-5.66-5.35-8.49-12.62-8.49-21.78s2.84-16.35,8.51-21.76c5.68-5.41,13.29-8.11,22.84-8.11s16.69,2.68,21.76,8.05,7.59,13.06,7.59,23.07v2.01h-36.86v1.14c0,4.66,.98,8.24,2.92,10.72,1.94,2.49,4.72,3.72,8.31,3.72,3.06,0,5.56-.89,7.51-2.69s3.24-4.38,3.9-7.74h14.46Zm-37.09-15.47h17.03v-.86c0-3.67-.75-6.5-2.24-8.49-1.49-1.99-3.61-2.98-6.36-2.98s-4.75,1.07-6.22,3.21c-1.47,2.14-2.2,5.18-2.2,9.11h0Z"/>
    <path class="cls-1" d="M488.99,123.05c0,2.29,.34,3.79,1.03,4.47s2.14,1.03,4.36,1.03h2.35v10.32h-37.09v-10.32h1.26c1.99,0,3.31-.35,3.95-1.06s.98-2.18,.98-4.44v-20.01c0-3.17-.63-5.55-1.89-7.13s-3.17-2.38-5.73-2.38-4.79,1.01-6.36,3.04c-1.57,2.03-2.35,4.77-2.35,8.26v18.23c0,2.22,.34,3.69,1.03,4.41,.69,.73,2.04,1.09,4.07,1.09h1.14v10.32h-37.66v-10.32h2.81c2.26,0,3.73-.35,4.44-1.06s1.06-2.18,1.06-4.44v-23.73c0-2.29-.35-3.79-1.06-4.47s-2.18-1.03-4.44-1.03h-2.81v-10.38h30.84v8.6c2.53-3.33,5.51-5.83,8.98-7.54,3.46-1.7,7.33-2.55,11.61-2.55,7.07,0,12.09,1.53,15.05,4.59s4.44,8.37,4.44,15.93v20.58h.01Z"/>
    <path class="cls-1" d="M579.62,60.11v32.27h-12.78c-.23-3.86-.64-7.02-1.23-9.49-.59-2.46-1.45-4.53-2.55-6.22-1.34-1.99-3.07-3.39-5.19-4.21-2.12-.82-6.18-1.23-12.18-1.23h-10.09v21.61h3.04c3.56,0,6.04-.86,7.48-2.58s2.15-4.77,2.15-9.17v-.69h9.86v35.94h-9.86c-.16-5.5-.87-9.08-2.15-10.72s-3.73-2.46-7.36-2.46h-3.15v17.77c0,3.24,.41,5.19,1.23,5.81s2.55,.95,5.19,.95h4.36v11.18h-46.83v-11.18h3.95c2.6,0,4.31-.3,5.13-.92s1.23-2.37,1.23-5.27v-43.57c0-3.06-.38-4.94-1.14-5.65-.77-.71-2.55-1.06-5.34-1.06h-3.84v-11.12h80.08Z"/>
    <path class="cls-1" d="M591.94,75.93c0-2.26-.36-3.73-1.09-4.44-.73-.71-2.19-1.06-4.41-1.06h-2.58v-10.32h31.18v62.94c0,2.29,.35,3.79,1.06,4.47s2.17,1.03,4.39,1.03h1.83v10.32h-38.46v-10.32h2.58c2.22,0,3.69-.35,4.41-1.06,.73-.71,1.09-2.18,1.09-4.44v-47.12h0Z"/>
    <path class="cls-1" d="M671.16,98.97c.07-.23,.19-.55,.34-.98,.27-.64,.41-1.07,.41-1.26,0-1.03-.49-1.76-1.47-2.17s-2.87-.69-5.7-.8v-10.32h28.26v10.38c-2.4,0-4.25,.4-5.53,1.18s-2.45,2.45-3.53,5.01l-17.71,43.57c-2.79,6.92-6.32,12.06-10.61,15.44s-9.34,5.08-15.19,5.08-10.3-1.4-13.7-4.21c-3.4-2.81-5.11-6.56-5.11-11.26,0-3.29,1.06-5.97,3.18-8.05s4.87-3.12,8.23-3.12c2.94,0,5.34,.79,7.2,2.38,1.85,1.58,2.78,3.62,2.78,6.1,0,2.22-.62,4.04-1.86,5.45s-3.09,2.37-5.53,2.87c.57,.69,1.22,1.2,1.92,1.52s1.5,.49,2.38,.49c2.29,0,4.51-.99,6.68-2.95,2.16-1.97,4.1-4.78,5.81-8.46l-18.46-42.13-.34-.75c-2.4-5.43-4.95-8.14-7.62-8.14h-2.12v-10.38h36.17v10.38c-2.29,.04-3.7,.21-4.24,.52-.53,.31-.8,.86-.8,1.66,0,.57,.18,1.3,.52,2.17,.11,.27,.21,.5,.29,.69l7.97,19.49,7.39-19.38v-.02Z"/>
  </g>
</svg>