<?xml version="1.0" encoding="UTF-8"?>
<svg id="Layer_1" data-name="Layer 1" xmlns="http://www.w3.org/2000/svg" viewBox="0 0 1100 125.18">
  <defs>
    <style>
      .cls-1 {
        fill: blue;
      }

      .cls-2 {
        fill: #f0214d;
      }

      .cls-3 {
        fill: #6e1ba0;
      }
    </style>
  </defs>
  <path class="cls-2" d="M551.51,91.06c-3.53-.61-7.67-.3-11.2-.3V56.96l11.1-.2c.61,6.86,.3,13.92,.3,20.89,0,4.24,.4,9.08-.2,13.42Z"/>
  <path class="cls-2" d="M463.93,56.86l13.42-.1,.1,33.9-13.92,.1c1.21-5.85,2.72-12.21,2.52-18.26-.3-5.15-1.72-10.29-2.12-15.64Z"/>
  <path class="cls-2" d="M246.6,56.15c.2,11.3-1.01,23.91,1.82,34.91-5.95-1.31-14.43-.3-20.58-.3,3.73-12.11,2.72-21.69,.5-33.9,5.85-.4,12.81,1.11,18.26-.71Z"/>
  <path class="cls-2" d="M349.11,56.76l18.06,.1c-2.52,12.41-2.93,21.49,0,34-5.55-.3-15.34-1.41-20.38,.81,1.61-7.47,1.72-14.33,1.72-21.9,0-4.24-.5-8.98,.61-13.02Z"/>
  <path class="cls-1" d="M903.25,56.25l.1-32.99c3.63,.61,7.26,1.31,10.8,2.52,15.34,5.25,24.42,16.24,31.38,30.17l-42.28,.3Z"/>
  <path class="cls-1" d="M185.65,56.25l.1-33.2,11.1,2.83c15.13,4.94,24.11,16.35,31.08,29.97l-42.28,.4Z"/>
  <path class="cls-1" d="M420.85,56.15l.2-33.09c4.44,.61,8.88,1.82,13.12,3.43,13.92,5.35,23.11,16.14,29.16,29.36l-42.48,.3Z"/>
  <path class="cls-1" d="M185.75,90.96l27.85,.1c4.44,0,9.59-.5,14.02,.3-1.51,3.94-3.33,7.77-5.75,11.2-8.98,12.81-21.09,19.07-36.12,21.69v-33.3Z"/>
  <path class="cls-1" d="M903.25,90.86h30.17c3.53,0,8.58-.71,11.81,.4-1.72,4.14-3.63,8.07-6.15,11.81-8.78,12.61-21.09,18.36-35.72,20.99l-.1-33.2Z"/>
  <path class="cls-1" d="M420.95,91.37c3.83-.81,39.55-1.21,41.77,.2l.2,.2c-1.41,3.53-3.03,6.76-5.04,9.99-8.88,13.62-21.59,19.57-36.93,22.9v-33.3Z"/>
  <path class="cls-1" d="M551.51,56.25l.2-33.5c14.63,1.41,25.53,5.35,35.21,16.95,4.14,5.04,6.46,10.29,8.68,16.35l-44.09,.2Z"/>
  <path class="cls-1" d="M785.4,56.15l.1-33.4c6.66,.4,12.92,1.31,18.97,4.14,12.71,5.85,19.98,16.14,24.72,28.96l-43.79,.3Z"/>
  <path class="cls-1" d="M248.72,91.37c3.13-1.11,8.68-.4,12.21-.4h31.28v33.8c-14.53-1.61-26.13-5.45-35.62-17.46-3.43-4.34-6.66-10.59-7.87-15.94Z"/>
  <path class="cls-1" d="M37.33,55.85c-9.99-3.73-18.16-9.18-22.7-19.27-2.02-4.54-2.62-9.28-3.23-14.13H56.91V56.35l-19.57-.5Z"/>
  <path class="cls-1" d="M964.9,55.95c-1.11-7.87,.2-15.13,5.04-21.59,4.24-5.55,10.59-10.09,17.66-11.1,7.06-1.01,14.93-.4,22.1-.4,0,10.7-1.21,22.8,.2,33.3l-45-.2Z"/>
  <path class="cls-1" d="M1020.9,91.77l1.21-.81,29.46-.1c4.44,0,9.99-.71,14.33,.5,.3,9.28-.4,16.75-7.06,23.91-5.65,6.05-12.71,9.18-21.09,9.38h-16.85v-32.89Z"/>
  <path class="cls-1" d="M67.8,56.05l.1-33.7c13.42,0,26.74-1.72,37.13,8.68,5.45,5.35,8.17,12.11,8.17,19.78,0,1.82,.1,3.63-.61,5.35-5.04,.5-10.59,.1-15.64,.1l-29.16-.2Z"/>
  <path class="cls-1" d="M846.74,56.25c1.31-10.49,.2-22.6,.2-33.3l32.69-.1c3.53,0,9.28-.81,12.31,1.01l-.1,32.39h-45.1Z"/>
  <path class="cls-1" d="M303.5,23.86c4.24-2.32,37.74-.91,45-.91l.2,33.3h-45.1l-.1-32.39Z"/>
  <path class="cls-1" d="M129.45,55.95l-.1-32.99h45.1c0,10.59-1.21,22.8,.2,33.3-14.73,0-30.67,1.21-45.2-.3Z"/>
  <path class="cls-1" d="M669.16,91.26c3.63-1.31,9.59-.5,13.62-.5l31.78,.1-.1,33.2-45,.1-.3-32.89Z"/>
  <path class="cls-1" d="M246.6,56.15l.2-33.2h45.3l.2,33.3-45.71-.1Z"/>
  <path class="cls-1" d="M608.12,90.96l44.9-.1v33.2c-3.83,2.02-38.04,.71-44.9,.71v-33.8Z"/>
  <path class="cls-1" d="M68.01,90.46l31.08,.1c4.54,0,9.89,.61,14.33-.1v33.7l-45.3,.1-.1-33.8Z"/>
  <path class="cls-1" d="M1021,56.66V22.96h45.1V56.66h-45.1Z"/>
  <path class="cls-1" d="M551.72,91.37c2.93-1.21,8.78-.4,12.11-.4h32.89v33.7h-45.1l.1-33.3Z"/>
  <path class="cls-1" d="M129.35,91.67c2.32-1.51,8.37-.81,11.3-.81h33.7v33.7h-45.1l.1-32.89Z"/>
  <path class="cls-1" d="M846.95,90.96c14.43,0,30.27-1.31,44.5,.2l.61,1.82v31.78h-45.1v-33.8Z"/>
  <path class="cls-1" d="M785.4,90.96h33.5c3.13,0,9.28-.81,11.91,.5l-.1,33.3h-45.2l-.1-33.8Z"/>
  <path class="cls-1" d="M964.39,90.86h45.3v33.9h-45.2l-.1-33.9Z"/>
  <path class="cls-3" d="M595.51,56.15l.2,.71c1.51,11.2,1.01,22.8,1.01,34.1h-32.89c-3.33,0-9.18-.71-12.11,.4l-.2-.3c.61-4.34,.2-9.18,.2-13.52,0-6.96,.3-13.92-.3-20.89l.1-.4,43.99-.1Z"/>
  <path class="cls-3" d="M129.15,56.45l.3-.61c14.53,1.61,30.47,.3,45.2,.3l.4,.61c-1.01,3.94-.61,8.27-.61,12.31v21.79h-33.7c-2.93,0-8.98-.71-11.3,.81l-.61-.81c1.01-2.42,.4-6.36,.4-9.08l-.1-25.33Z"/>
  <path class="cls-2" d="M688.74,.05c4.74-.2,9.48,.1,13.72,2.42,5.35,2.93,9.48,7.87,11.1,13.72,1.61,5.65,1.01,12.21-1.92,17.35-3.83,6.76-9.48,9.59-16.75,11.6-5.25,.1-9.99-.4-14.63-3.23-5.35-3.23-8.98-8.27-10.39-14.43-1.31-5.55-.4-11.91,2.72-16.75,3.83-6.15,9.18-9.18,16.14-10.7Z"/>
  <path class="cls-3" d="M463.13,55.95l.81,1.01c.4,5.25,1.82,10.39,2.02,15.74,.2,6.05-1.31,12.31-2.52,18.26l-.5,.81-.2-.2c-2.22-1.41-37.94-1.01-41.77-.2l-.2-.5-10.9-.1V56.76c3.63,.1,7.47,.4,11-.61l42.28-.2Z"/>
  <path class="cls-2" d="M420.85,56.15l.1,23.31c0,3.53,.4,7.87-.2,11.3l-10.9-.1V56.76c3.53,.1,7.47,.5,11-.61Z"/>
  <path class="cls-3" d="M945.52,55.95l.5,.91c2.22,12.01,3.43,22.2-.5,34.1l-.3,.3c-3.23-1.11-8.27-.4-11.81-.4h-30.17c-3.53-.4-7.47-.1-11.1-.2-.5-3.33-.2-7.26-.2-10.7l.1-23.21c3.63,.1,7.57,.4,11.1-.61l42.38-.2Z"/>
  <path class="cls-2" d="M903.25,56.25v34.61c-3.53-.4-7.47-.1-11.1-.2-.5-3.33-.2-7.26-.2-10.7l.1-23.21c3.73,.1,7.67,.5,11.2-.5Z"/>
  <path class="cls-3" d="M227.93,55.95l.4,.91c2.22,12.21,3.23,21.79-.5,33.9l-.3,.61c-4.34-.81-9.48-.3-14.02-.3l-27.85-.1c-3.73-.4-7.57-.1-11.4,0v-21.79c0-4.04-.4-8.37,.61-12.31,3.53,.1,7.26,.4,10.7-.61l42.38-.3Z"/>
  <path class="cls-2" d="M185.65,56.25v34.71c-3.73-.4-7.57-.1-11.4,0v-21.79c0-4.04-.4-8.37,.61-12.31,3.63,0,7.37,.4,10.8-.61Z"/>
  <path class="cls-3" d="M246.6,56.15l45.71,.1v.5l11-.1v34l-11.1,.1h-31.28c-3.53,0-9.08-.71-12.21,.4l-.3-.1c-2.83-10.9-1.61-23.61-1.82-34.91Z"/>
  <path class="cls-2" d="M292.3,56.76l11-.1v34l-11.1,.1,.1-34Z"/>
  <path class="cls-3" d="M829.19,55.95l.3,1.01c1.01,7.16,1.31,14.13,1.31,21.29,0,4.04-.4,8.68,.1,12.61l-.2,.71c-2.52-1.31-8.78-.5-11.91-.5h-33.5l-11.1-.2,.1-33.9c3.63,.1,7.57,.5,11-.61l43.89-.4Z"/>
  <path class="cls-2" d="M785.4,56.15v34.71l-11.1-.2,.1-33.9c3.53,.1,7.47,.5,11-.61Z"/>
  <path class="cls-3" d="M891.95,23.86l.3,32.89-.1,23.21c0,3.43-.3,7.37,.2,10.7l-.1,2.12-.61-1.82c-14.33-1.51-30.07-.2-44.5-.2-5.15-.61-10.8-.2-15.94-.2-.61-3.94-.1-8.58-.1-12.61,0-7.16-.3-14.13-1.31-21.29l16.85-.2,.4-.4h45.1l-.2-32.19Z"/>
  <path class="cls-2" d="M829.49,56.86l16.85-.2c1.11,3.73,.61,8.17,.61,12.11v22.1c-5.15-.61-10.8-.2-15.94-.2-.61-3.94-.1-8.58-.1-12.61-.1-7.06-.4-14.02-1.41-21.19Z"/>
  <path class="cls-3" d="M669.06,56.25h45.4l14.83,.61,.1,33.9c-4.64,0-10.29-1.01-14.83,0l-31.78-.1c-4.04,0-9.99-.71-13.62,.5l-.3-.81-15.54,.3c-.5-3.63-.2-7.77-.2-11.5l.2-22.4,15.74-.5Z"/>
  <path class="cls-2" d="M714.47,56.25l14.83,.61,.1,33.9c-4.64,0-10.29-1.01-14.83,0l-.1-34.51Z"/>
  <path class="cls-2" d="M653.32,56.96l15.74-.61v23.11c0,3.43,.5,7.77-.3,11.1l-15.54,.3c-.5-3.63-.2-7.77-.2-11.5l.3-22.4Z"/>
  <path class="cls-3" d="M303.5,23.86l.1,32.49h45.1l.4,.5c-1.11,4.04-.61,8.78-.61,13.02,0,7.57-.1,14.43-1.72,21.9l-.2,.4c-4.34,12.41-11.6,22.2-23.71,28.05-5.65,2.72-12.01,3.83-18.26,4.34l-1.11-1.21c-.61-3.33-.2-7.47-.2-10.9V56.86c-.61-3.23-.1-7.77-.1-11.1,0-7.26-.5-14.83,.3-21.9Z"/>
  <path class="cls-1" d="M303.5,123.25c1.21-10.29,.2-22,.2-32.39l30.77,.1c3.63,0,9.18-.81,12.11,1.11-4.34,12.41-11.6,22.2-23.71,28.05-5.65,2.72-12.01,3.83-18.26,4.34l-1.11-1.21Z"/>
  <path class="cls-3" d="M609.83,55.55l2.12-5.45c4.54-10.7,13.92-19.98,24.82-24.32,4.14-1.61,12.21-4.04,16.45-2.22,.81,6.46,.4,13.32,.3,19.88,0,4.24,.5,9.18-.1,13.32l-.2,22.4c0,3.73-.3,7.87,.2,11.5l.2,24.22c0,2.72,.5,6.56-.4,9.08v-33.2l-44.9,.1c-3.73-.5-7.67-.1-11.4,0,0-11.3,.5-22.8-1.01-34.1h13.42l.5-1.21Z"/>
  <path class="cls-2" d="M595.71,56.86h13.42l-1.11,34.1c-3.73-.5-7.67-.1-11.4,0,.1-11.3,.61-22.9-.91-34.1Z"/>
  <path class="cls-1" d="M609.83,55.55l2.12-5.45c4.54-10.7,13.92-19.98,24.82-24.32,4.14-1.61,12.21-4.04,16.45-2.22l-.1,32.59h-32.49c-2.93,.1-8.68,.81-10.8-.61Z"/>
  <path class="cls-3" d="M367.37,56.25c3.94-9.59,9.99-17.96,18.57-24.01,5.45-3.94,16.45-9.59,23.31-8.37,1.11,3.43,.61,7.87,.61,11.6v21.29l-.1,33.9,.1,23.71c0,2.52,.5,6.56-.3,8.78-4.24,1.41-11.5-1.61-15.44-3.33-12.41-5.55-21.79-16.24-26.54-28.86l-.3-.2c-2.93-12.51-2.52-21.59,0-34l.1-.5Z"/>
  <path class="cls-1" d="M367.37,56.25c3.94-9.59,9.99-17.96,18.57-24.01,5.45-3.94,16.45-9.59,23.31-8.37l.1,32.49-41.97-.1Z"/>
  <path class="cls-1" d="M367.47,91.06l41.87-.2,.1,32.49c-4.24,1.41-11.5-1.61-15.44-3.33-12.31-5.65-21.69-16.35-26.54-28.96Z"/>
  <path class="cls-3" d="M729.7,23.66c3.53-1.51,9.38-.81,13.32-.81h31.08v26.03l.2,7.87-.1,33.9-.2,7.97v25.93c-6.76,0-40.76,1.31-44.4-.71-.91-3.63-.4-7.87-.4-11.7l.1-21.59-.1-33.9c.1-10.49-1.01-22.4,.5-32.99Z"/>
  <path class="cls-1" d="M729.7,23.66c3.53-1.51,9.38-.81,13.32-.81h31.08v26.03c-.1,2.42,.3,5.25-1.01,7.26l-43.49,.1,.1-32.59Z"/>
  <path class="cls-1" d="M729.7,123.96l-.1-33.09h29.36c4.74,0,10.09-.5,14.73,.3l.4,7.47v25.93c-6.76,.1-40.76,1.41-44.4-.61Z"/>
  <path class="cls-2" d="M964.9,55.95l45,.3v.5l11.1-.1h45.1l33.9,.2v33.9l-33.9,.1-.2,.5c-4.24-1.11-9.89-.5-14.33-.5l-29.46,.1-1.21,.81-.4-.91h-56.1l-18.97,.1c3.94-11.91,2.83-22.1,.5-34.1l18.26-.3,.71-.61Z"/>
  <path class="cls-3" d="M1020.49,90.86l.1-.5c1.11-5.15,.3-11.81,.2-17.15,0-1.51-.4-4.04,.2-5.35,13.02,.2,27.14-1.61,37.03,8.68,4.14,4.24,5.55,9.08,7.87,14.33l-.2,.5c-4.24-1.11-9.89-.5-14.33-.5l-29.46,.1-1.21,.81-.2-.91Z"/>
  <path class="cls-3" d="M964.9,55.95l45,.3v.5c-.81,7.26-.2,15.24-.2,22.5-7.67,.1-18.57,1.31-25.63-1.31-6.96-2.52-12.51-6.86-16.14-13.42-1.31-2.42-2.02-5.15-3.43-7.67l-.2-.4,.61-.5Z"/>
  <path class="cls-2" d="M37.33,55.85l19.57,.5c3.43,0,7.67,.4,11-.2l29.16,.2c5.04,0,10.59,.4,15.64-.1,5.04,.2,11.5,1.31,16.45,.4l.1,25.22c0,2.72,.5,6.66-.4,9.08l-15.54-.4c-4.44,.71-9.79,.1-14.33,.1l-31.08-.1c-3.43-.61-7.57-.2-11.1-.1,0,5.35,1.31,30.37-.71,33.4-4.94,1.21-12.01,.4-17.25,.3-7.77-.2-14.43-3.13-19.78-8.78-6.56-6.96-7.77-14.53-7.47-23.71l-.1-.91c-3.63-.61-7.87-.2-11.5-.3L.1,56.66l37.23-.81Z"/>
  <path class="cls-3" d="M67.8,56.05l29.16,.2c5.04,0,10.59,.4,15.64-.1-1.01,5.25-3.43,10.39-7.26,14.23-10.19,10.39-24.11,8.68-37.53,8.78v-23.11Z"/>
  <path class="cls-3" d="M11.7,90.46c3.53-9.08,7.37-16.24,16.75-20.48,8.27-3.63,19.57-2.42,28.55-2.32v22.6c0,5.35,1.31,30.37-.71,33.4,.71-3.53,.3-7.77,.3-11.3l.1-21.59H25.02c-3.94,0-9.48-.81-13.12,.71l-.2-1.01Z"/>
  <path class="cls-1" d="M11.81,91.47c3.63-1.41,9.28-.71,13.12-.71h31.68l-.1,21.59c0,3.53,.4,7.87-.3,11.3-4.94,1.21-12.01,.4-17.25,.3-7.77-.2-14.43-3.13-19.78-8.78-6.46-6.96-7.67-14.53-7.37-23.71Z"/>
</svg>