<?xml version="1.0" standalone="no"?>
<!DOCTYPE svg PUBLIC "-//W3C//DTD SVG 20010904//EN"
 "http://www.w3.org/TR/2001/REC-SVG-20010904/DTD/svg10.dtd">
<svg version="1.0" xmlns="http://www.w3.org/2000/svg"
 width="512.000000pt" height="512.000000pt" viewBox="0 0 512.000000 512.000000"
 preserveAspectRatio="xMidYMid meet">
<metadata>
Created by potrace 1.14, written by Peter Selinger 2001-2017
</metadata>
<g transform="translate(0.000000,512.000000) scale(0.100000,-0.100000)"
fill="#000000" stroke="none">
<path d="M0 2560 l0 -2560 2560 0 2560 0 0 2560 0 2560 -2560 0 -2560 0 0
-2560z m3080 934 c291 -168 549 -323 574 -345 24 -21 56 -63 70 -91 l26 -52 0
-465 0 -466 -24 -50 c-32 -67 -83 -113 -196 -175 -52 -29 -266 -150 -475 -270
-491 -280 -455 -263 -529 -258 -59 4 -81 16 -571 297 -287 164 -526 308 -547
328 -72 70 -73 79 -73 603 l0 465 27 50 c26 51 59 85 113 122 17 11 242 142
501 290 259 149 488 282 510 296 21 14 45 26 52 26 8 1 251 -137 542 -305z
m624 273 c25 -14 48 -39 63 -66 20 -38 23 -58 23 -150 -1 -171 -20 -221 -102
-255 -74 -31 -154 -2 -205 73 -21 31 -23 45 -23 168 0 114 3 140 20 173 39 76
145 103 224 57z"/>
<path d="M2208 3217 l-326 -191 321 -184 c177 -101 327 -186 334 -189 9 -3
568 310 646 362 15 11 -27 38 -309 201 -180 104 -329 190 -333 190 -3 1 -153
-84 -333 -189z"/>
<path d="M1670 2467 l0 -285 308 -173 c169 -95 326 -184 350 -197 l42 -24 0
279 0 279 -292 169 c-161 94 -318 185 -350 203 l-58 33 0 -284z"/>
<path d="M3058 2546 l-348 -201 1 -220 c1 -121 4 -246 8 -278 l6 -58 343 198
343 198 6 283 c3 161 2 282 -3 281 -5 -1 -165 -92 -356 -203z"/>
</g>
</svg>
